<svg id="visual" viewBox="0 0 1920 1080" width="1920" height="1080" xmlns="http://www.w3.org/2000/svg" xmlns:xlink="http://www.w3.org/1999/xlink" version="1.1"><path d="M0 195L175 174L349 109L524 87L698 131L873 120L1047 163L1222 217L1396 109L1571 98L1745 77L1920 174L1920 0L1745 0L1571 0L1396 0L1222 0L1047 0L873 0L698 0L524 0L349 0L175 0L0 0Z" fill="#00cc8e"></path><path d="M0 649L175 476L349 249L524 239L698 627L873 541L1047 487L1222 379L1396 336L1571 411L1745 271L1920 541L1920 172L1745 75L1571 96L1396 107L1222 215L1047 161L873 118L698 129L524 85L349 107L175 172L0 193Z" fill="#00b98a"></path><path d="M0 746L175 627L349 563L524 476L698 757L873 649L1047 584L1222 606L1396 444L1571 671L1745 552L1920 703L1920 539L1745 269L1571 409L1396 334L1222 377L1047 485L873 539L698 625L524 237L349 247L175 474L0 647Z" fill="#00a784"></path><path d="M0 930L175 930L349 984L524 941L698 984L873 984L1047 1005L1222 1016L1396 897L1571 908L1745 897L1920 930L1920 701L1745 550L1571 669L1396 442L1222 604L1047 582L873 647L698 755L524 474L349 561L175 625L0 744Z" fill="#00957c"></path><path d="M0 1081L175 1081L349 1081L524 1081L698 1081L873 1081L1047 1081L1222 1081L1396 1081L1571 1081L1745 1081L1920 1081L1920 928L1745 895L1571 906L1396 895L1222 1014L1047 1003L873 982L698 982L524 939L349 982L175 928L0 928Z" fill="#038373"></path></svg>