<?xml version="1.0" encoding="utf-8"?>
<svg viewBox="0 0 500 500" xmlns="http://www.w3.org/2000/svg">
  <path d="M0 649L175 476L349 249L524 239L698 627L873 541L1047 487L1222 379L1396 336L1571 411L1745 271L1920 541L1920 172L1745 75L1571 96L1396 107L1222 215L1047 161L873 118L698 129L524 85L349 107L175 172L0 193Z" fill="#00b98a" transform="matrix(1, 0, 0, 1, -441.118896, -290.5)"/>
  <path d="M0 746L175 627L349 563L524 476L698 757L873 649L1047 584L1222 606L1396 444L1571 671L1745 552L1920 703L1920 539L1745 269L1571 409L1396 334L1222 377L1047 485L873 539L698 625L524 237L349 247L175 474L0 647Z" fill="#00a784" transform="matrix(1, 0, 0, 1, -441.118896, -290.5)"/>
  <path d="M0 930L175 930L349 984L524 941L698 984L873 984L1047 1005L1222 1016L1396 897L1571 908L1745 897L1920 930L1920 701L1745 550L1571 669L1396 442L1222 604L1047 582L873 647L698 755L524 474L349 561L175 625L0 744Z" fill="#00957c" transform="matrix(1, 0, 0, 1, -441.118896, -290.5)"/>
  <text style="fill: rgb(51, 51, 51); font-family: Arial, sans-serif; font-size: 123.6px; font-weight: 700; text-transform: capitalize; white-space: pre;" x="280.366" y="309.651" transform="matrix(0.20804, 0, 0, 0.207015, 107.01281, 33.945351)">DesireOS</text>
  <text style="white-space: pre; fill: rgb(51, 51, 51); font-family: Arial, sans-serif; font-size: 19.6px;" x="478.322" y="275.524"> </text>
  <text style="white-space: pre; fill: rgb(51, 51, 51); font-family: Arial, sans-serif; font-size: 84.9px;" x="278.257" y="260.486"> </text>
  <text style="white-space: pre; fill: rgb(51, 51, 51); font-family: Arial, sans-serif; font-size: 84.9px;" x="466.197" y="554.52"> </text>
</svg>