<svg id="svg" version="1.1" xmlns="http://www.w3.org/2000/svg" xmlns:xlink="http://www.w3.org/1999/xlink" width="400" height="400" viewBox="0, 0, 400,400"><g id="svgg"><path id="path0" d="M76.600 71.360 C 72.197 73.458,72.022 74.415,72.010 96.445 C 71.997 118.949,72.181 119.936,76.808 122.300 L 78.570 123.200 200.098 123.200 C 332.460 123.200,323.092 123.358,325.533 121.081 C 328.050 118.733,328.000 119.225,328.000 96.865 C 328.000 74.710,328.018 74.897,325.733 72.721 C 323.093 70.207,333.529 70.400,200.113 70.404 L 78.600 70.408 76.600 71.360 M79.661 159.875 C 75.099 161.745,71.941 165.841,71.163 170.895 C 70.923 172.455,70.819 200.581,70.888 245.400 L 71.000 317.400 71.941 319.732 C 73.064 322.516,76.114 325.735,79.018 327.200 L 81.000 328.200 145.600 328.200 L 210.200 328.200 212.400 327.162 C 215.206 325.839,217.839 323.206,219.162 320.400 L 220.200 318.200 220.200 243.600 L 220.200 169.000 219.087 166.735 C 217.672 163.853,215.348 161.529,212.466 160.113 L 210.200 159.000 146.200 158.917 L 82.200 158.834 79.661 159.875 M260.697 159.528 C 258.145 160.435,255.029 163.193,253.692 165.729 L 252.600 167.800 252.496 242.874 L 252.392 317.948 253.248 320.237 C 254.314 323.085,256.827 325.681,259.921 327.132 L 262.200 328.200 288.169 328.314 C 305.514 328.390,314.824 328.286,316.202 328.000 C 321.729 326.852,325.383 323.083,326.423 317.457 C 326.672 316.113,326.775 288.563,326.707 241.970 L 326.600 168.600 325.562 166.400 C 324.308 163.741,321.819 161.177,319.278 159.925 L 317.400 159.000 290.000 158.925 C 265.163 158.858,262.422 158.914,260.697 159.528 " stroke="none" fill="#53c34b" fill-rule="evenodd"></path><path id="path1" d="M0.000 200.000 L 0.000 400.000 200.000 400.000 L 400.000 400.000 400.000 200.000 L 400.000 0.000 200.000 0.000 L 0.000 0.000 0.000 200.000 M321.898 69.652 C 324.755 70.312,326.734 71.838,328.051 74.400 L 329.183 76.600 329.185 96.400 C 329.187 111.210,329.062 116.553,328.689 117.600 C 327.414 121.178,325.394 123.068,321.923 123.933 C 319.239 124.601,81.199 124.607,78.477 123.939 C 76.393 123.428,74.611 122.334,73.400 120.824 C 71.309 118.215,71.400 119.303,71.400 96.800 L 71.400 75.800 72.450 74.000 C 73.642 71.955,75.853 70.300,78.200 69.695 C 80.571 69.084,319.253 69.042,321.898 69.652 M210.705 158.337 C 211.087 158.522,212.241 159.080,213.270 159.576 C 215.998 160.894,218.442 163.443,220.016 166.613 L 221.400 169.400 221.400 243.400 C 221.400 305.035,221.309 317.634,220.853 318.800 C 219.593 322.026,219.111 322.795,217.106 324.785 C 214.941 326.934,213.636 327.794,211.200 328.679 C 209.153 329.423,82.458 329.426,80.400 328.682 C 75.726 326.993,72.457 323.722,70.730 319.006 C 69.836 316.564,69.565 171.118,70.451 168.919 C 72.474 163.894,74.985 161.006,78.910 159.189 L 81.400 158.037 145.705 158.018 C 181.073 158.008,210.323 158.152,210.705 158.337 M318.864 158.662 C 321.932 159.579,325.369 163.284,326.812 167.234 C 327.757 169.819,328.084 316.761,327.149 319.081 C 325.904 322.175,324.901 323.770,323.209 325.353 C 321.502 326.950,320.663 327.447,317.481 328.744 C 316.125 329.297,262.788 329.400,261.695 328.852 C 261.313 328.661,260.152 328.126,259.115 327.664 C 256.349 326.432,254.164 324.249,252.697 321.251 L 251.400 318.600 251.400 243.561 C 251.400 187.908,251.519 168.273,251.859 167.561 C 252.112 167.032,252.596 165.970,252.936 165.200 C 253.866 163.093,257.537 159.694,259.825 158.823 C 262.171 157.929,315.920 157.783,318.864 158.662 " stroke="none" fill="#2c2c2c" fill-rule="evenodd"></path><path id="path2" d="M78.876 69.940 C 78.368 70.083,132.964 70.200,200.200 70.200 C 267.436 70.200,322.032 70.083,321.524 69.940 C 321.016 69.797,266.420 69.680,200.200 69.680 C 133.980 69.680,79.384 69.797,78.876 69.940 M328.302 90.737 C 328.358 99.022,328.453 108.320,328.514 111.400 C 328.574 114.480,328.661 107.910,328.706 96.800 C 328.751 85.690,328.656 76.392,328.494 76.137 C 328.332 75.883,328.246 82.453,328.302 90.737 M71.785 96.600 C 71.785 107.380,71.837 111.733,71.900 106.272 C 71.963 100.812,71.963 91.992,71.900 86.672 C 71.837 81.353,71.785 85.820,71.785 96.600 M325.775 121.300 L 324.600 122.600 325.900 121.425 C 326.615 120.779,327.200 120.194,327.200 120.125 C 327.200 119.816,326.870 120.088,325.775 121.300 M78.876 123.660 C 80.084 124.000,320.316 124.000,321.524 123.660 C 322.032 123.517,267.436 123.400,200.200 123.400 C 132.964 123.400,78.368 123.517,78.876 123.660 M258.344 160.024 L 257.400 160.847 258.600 160.145 C 260.179 159.220,260.203 159.200,259.711 159.200 C 259.479 159.200,258.864 159.571,258.344 160.024 M255.578 162.300 L 254.200 163.800 255.700 162.422 C 257.096 161.138,257.384 160.800,257.078 160.800 C 257.012 160.800,256.337 161.475,255.578 162.300 M251.796 243.600 C 251.796 283.530,251.843 299.865,251.900 279.900 C 251.957 259.935,251.957 227.265,251.900 207.300 C 251.843 187.335,251.796 203.670,251.796 243.600 M220.996 243.600 C 220.996 283.090,221.043 299.245,221.100 279.500 C 221.157 259.755,221.157 227.445,221.100 207.700 C 221.043 187.955,220.996 204.110,220.996 243.600 M326.854 317.067 C 326.825 317.544,326.696 318.264,326.570 318.667 C 326.352 319.361,326.364 319.362,326.796 318.688 C 327.047 318.297,327.175 317.577,327.081 317.088 C 326.909 316.201,326.909 316.201,326.854 317.067 M322.981 324.900 L 321.400 326.600 323.100 325.019 C 324.681 323.548,324.984 323.200,324.681 323.200 C 324.616 323.200,323.851 323.965,322.981 324.900 M316.000 328.400 C 315.176 328.664,315.141 328.726,315.800 328.754 C 316.240 328.773,316.870 328.613,317.200 328.400 C 317.901 327.947,317.414 327.947,316.000 328.400 " stroke="none" fill="#3b733b" fill-rule="evenodd"></path><path id="path3" d="M139.668 70.300 C 172.815 70.356,227.175 70.356,260.468 70.300 C 293.760 70.244,266.640 70.197,200.200 70.197 C 133.760 70.197,106.520 70.244,139.668 70.300 M76.300 71.029 C 75.695 71.357,75.200 71.714,75.200 71.823 C 75.200 71.932,75.695 71.771,76.300 71.465 C 76.905 71.160,77.670 70.809,78.000 70.686 C 78.533 70.488,78.533 70.461,78.000 70.448 C 77.670 70.439,76.905 70.701,76.300 71.029 M323.200 71.037 C 323.970 71.370,325.209 72.218,325.953 72.921 C 327.135 74.038,327.224 74.070,326.657 73.176 C 325.980 72.109,323.293 70.388,322.346 70.416 C 322.045 70.424,322.430 70.704,323.200 71.037 M73.627 73.162 C 73.172 73.801,72.800 74.466,72.800 74.639 C 72.800 74.813,73.250 74.345,73.800 73.600 C 74.350 72.855,74.800 72.190,74.800 72.122 C 74.800 71.744,74.357 72.137,73.627 73.162 M72.249 75.815 C 72.112 76.173,72.018 76.856,72.041 77.333 C 72.067 77.881,72.203 77.686,72.410 76.803 C 72.760 75.316,72.665 74.733,72.249 75.815 M328.186 96.800 C 328.186 108.130,328.237 112.765,328.300 107.100 C 328.362 101.435,328.362 92.165,328.300 86.500 C 328.237 80.835,328.186 85.470,328.186 96.800 M72.006 116.233 C 72.009 116.875,72.184 117.670,72.395 118.000 C 72.655 118.409,72.699 118.090,72.532 117.000 C 72.229 115.023,71.998 114.686,72.006 116.233 M327.409 118.372 C 326.959 119.790,325.108 121.680,323.417 122.448 C 322.527 122.852,322.034 123.186,322.320 123.191 C 324.112 123.221,328.773 118.639,327.869 117.736 C 327.761 117.628,327.554 117.914,327.409 118.372 M73.152 119.400 C 74.158 121.253,76.658 123.206,78.000 123.190 C 78.330 123.186,77.867 122.850,76.972 122.443 C 76.076 122.036,74.752 121.005,74.030 120.152 C 73.308 119.298,72.913 118.960,73.152 119.400 M139.668 123.500 C 172.815 123.556,227.175 123.556,260.468 123.500 C 293.760 123.444,266.640 123.397,200.200 123.397 C 133.760 123.397,106.520 123.444,139.668 123.500 M81.738 158.706 C 81.484 158.868,110.323 159.000,145.823 159.000 C 181.324 159.000,210.062 158.878,209.685 158.728 C 208.753 158.358,82.319 158.336,81.738 158.706 M262.138 158.706 C 261.884 158.868,274.253 159.000,289.624 159.000 C 304.994 159.000,317.262 158.878,316.885 158.728 C 315.953 158.358,262.719 158.337,262.138 158.706 M319.503 160.044 C 320.440 160.507,322.041 161.722,323.061 162.743 C 324.098 163.782,324.623 164.143,324.253 163.563 C 323.157 161.847,319.561 159.200,318.326 159.200 C 318.037 159.200,318.566 159.580,319.503 160.044 M212.833 160.116 C 212.925 160.180,213.720 160.733,214.600 161.345 L 216.200 162.458 214.815 161.229 C 214.053 160.553,213.258 160.000,213.048 160.000 C 212.838 160.000,212.742 160.052,212.833 160.116 M256.423 161.855 C 254.576 163.516,252.479 166.612,252.910 167.043 C 253.000 167.134,253.408 166.470,253.815 165.567 C 254.222 164.664,255.546 163.043,256.757 161.963 C 257.969 160.883,258.853 160.000,258.723 160.000 C 258.593 160.000,257.558 160.835,256.423 161.855 M75.372 162.148 C 73.983 163.338,71.596 166.800,72.164 166.800 C 72.283 166.800,72.670 166.237,73.026 165.550 C 73.381 164.862,74.483 163.512,75.473 162.550 C 77.616 160.467,77.566 160.267,75.372 162.148 M216.654 162.900 C 217.409 164.151,219.200 166.490,219.200 166.225 C 219.200 165.889,216.746 162.400,216.509 162.400 C 216.423 162.400,216.489 162.625,216.654 162.900 M325.530 166.382 C 325.898 167.251,326.256 167.804,326.324 167.609 C 326.450 167.249,325.313 164.800,325.019 164.800 C 324.931 164.800,325.161 165.512,325.530 166.382 M252.252 168.500 C 251.903 169.804,251.956 318.112,252.306 318.662 C 252.468 318.916,252.600 285.031,252.600 243.362 C 252.600 201.693,252.576 167.600,252.547 167.600 C 252.517 167.600,252.385 168.005,252.252 168.500 M326.600 243.400 C 326.600 284.735,326.714 318.025,326.853 317.377 C 326.992 316.730,327.105 283.440,327.105 243.400 C 327.105 203.360,326.992 170.070,326.853 169.423 C 326.714 168.775,326.600 202.065,326.600 243.400 M220.200 243.600 C 220.200 284.698,220.332 318.116,220.494 317.862 C 220.656 317.608,220.788 284.190,220.788 243.600 C 220.788 203.010,220.656 169.592,220.494 169.338 C 220.332 169.084,220.200 202.502,220.200 243.600 M70.654 171.456 C 70.308 173.980,70.375 314.199,70.723 316.158 C 70.875 317.015,71.000 284.390,71.000 243.658 C 71.000 202.926,70.979 169.600,70.954 169.600 C 70.929 169.600,70.794 170.435,70.654 171.456 M71.228 318.676 C 71.213 319.158,71.380 319.664,71.600 319.800 C 72.073 320.092,72.073 319.701,71.600 318.600 C 71.269 317.829,71.255 317.831,71.228 318.676 M219.265 320.172 C 218.981 320.957,218.294 322.140,217.739 322.800 C 217.183 323.460,216.860 324.000,217.020 324.000 C 217.692 324.000,220.155 319.865,219.914 319.142 C 219.841 318.923,219.549 319.386,219.265 320.172 M253.603 321.762 C 253.598 322.418,255.573 324.727,256.899 325.617 C 258.077 326.407,258.057 326.362,256.685 325.145 C 255.852 324.405,254.818 323.260,254.388 322.600 C 253.957 321.940,253.604 321.563,253.603 321.762 M73.677 323.171 C 74.217 323.925,75.275 324.981,76.029 325.517 L 77.400 326.493 76.200 325.454 C 75.540 324.883,74.482 323.828,73.848 323.108 L 72.697 321.800 73.677 323.171 M322.782 324.509 C 321.782 325.439,320.612 326.428,320.182 326.706 C 319.752 326.984,319.940 326.954,320.600 326.639 C 321.625 326.149,325.301 322.783,324.781 322.809 C 324.682 322.814,323.782 323.579,322.782 324.509 M78.400 327.156 C 78.950 327.611,79.670 327.985,80.000 327.989 C 80.526 327.994,80.206 327.781,77.901 326.590 C 77.626 326.447,77.850 326.702,78.400 327.156 M212.200 327.222 C 211.320 327.638,210.834 327.984,211.120 327.990 C 211.702 328.001,214.000 326.884,214.000 326.590 C 214.000 326.356,214.118 326.314,212.200 327.222 M258.400 326.619 C 258.400 326.913,260.849 328.050,261.209 327.924 C 261.404 327.856,260.851 327.498,259.982 327.130 C 259.112 326.761,258.400 326.531,258.400 326.619 M81.515 328.472 C 81.892 328.621,110.730 328.744,145.600 328.744 C 180.470 328.744,209.308 328.621,209.685 328.472 C 210.062 328.322,181.224 328.200,145.600 328.200 C 109.976 328.200,81.138 328.322,81.515 328.472 M262.876 328.460 C 263.384 328.603,275.320 328.720,289.400 328.720 C 303.480 328.720,315.416 328.603,315.924 328.460 C 316.432 328.317,304.496 328.200,289.400 328.200 C 274.304 328.200,262.368 328.317,262.876 328.460 " stroke="none" fill="#40883c" fill-rule="evenodd"></path><path id="path4" d="M78.200 69.695 C 74.871 70.554,71.518 74.041,71.646 76.511 C 71.688 77.317,71.710 77.326,71.874 76.600 C 72.632 73.246,74.981 70.919,78.477 70.061 C 81.175 69.399,319.225 69.399,321.923 70.061 C 325.011 70.819,326.553 72.103,327.998 75.118 C 328.800 76.793,328.818 77.350,328.711 97.180 C 328.650 108.370,328.732 117.316,328.894 117.062 C 329.056 116.808,329.187 107.600,329.185 96.600 L 329.183 76.600 328.051 74.400 C 326.734 71.838,324.755 70.312,321.898 69.652 C 319.253 69.042,80.571 69.084,78.200 69.695 M71.385 96.600 C 71.385 107.160,71.437 111.423,71.500 106.072 C 71.563 100.722,71.563 92.082,71.500 86.872 C 71.436 81.663,71.385 86.040,71.385 96.600 M71.641 116.854 C 71.532 119.656,74.792 123.035,78.477 123.939 C 81.189 124.605,319.233 124.601,321.923 123.935 C 324.972 123.181,328.423 120.185,328.391 118.321 C 328.386 118.035,328.089 118.394,327.731 119.120 C 326.743 121.126,324.309 122.991,321.981 123.529 C 319.031 124.210,81.369 124.210,78.419 123.529 C 75.097 122.762,72.898 120.528,71.990 117.000 C 71.688 115.823,71.681 115.820,71.641 116.854 M78.910 159.189 C 74.985 161.006,72.474 163.894,70.451 168.919 C 69.565 171.118,69.836 316.564,70.730 319.006 C 72.277 323.231,77.202 328.400,79.680 328.400 C 79.959 328.400,79.471 328.017,78.594 327.550 C 74.757 325.502,72.186 322.459,71.005 318.566 C 70.246 316.062,70.080 171.523,70.834 169.160 C 72.303 164.555,75.011 161.380,79.018 159.563 L 81.582 158.400 145.797 158.400 C 181.114 158.400,210.323 158.552,210.705 158.737 C 214.309 160.485,215.137 160.953,216.056 161.760 C 216.638 162.269,217.673 163.459,218.356 164.403 C 219.851 166.467,220.015 166.209,218.583 164.046 C 217.375 162.221,213.487 159.237,211.904 158.921 C 211.288 158.798,210.686 158.540,210.568 158.348 C 210.447 158.153,182.077 158.008,145.876 158.018 L 81.400 158.037 78.910 159.189 M259.825 158.826 C 256.905 159.934,252.370 164.665,252.409 166.561 C 252.414 166.803,252.722 166.370,253.093 165.600 C 253.464 164.830,254.791 163.188,256.043 161.950 C 259.853 158.183,258.192 158.351,290.262 158.485 C 305.476 158.548,317.716 158.468,317.462 158.306 C 316.277 157.553,261.888 158.043,259.825 158.826 M319.000 159.087 C 321.041 159.583,324.537 163.008,325.851 165.800 C 326.369 166.900,326.794 167.568,326.796 167.284 C 326.814 164.968,321.102 158.737,319.062 158.846 C 318.253 158.890,318.249 158.905,319.000 159.087 M220.072 167.500 C 220.321 168.105,220.653 169.410,220.809 170.400 C 221.086 172.152,221.095 172.161,221.147 170.749 C 221.195 169.436,220.258 166.400,219.805 166.400 C 219.703 166.400,219.823 166.895,220.072 167.500 M251.709 167.843 C 251.539 168.259,251.400 202.350,251.400 243.600 L 251.400 318.600 252.443 320.821 C 254.151 324.457,258.513 328.407,260.800 328.387 C 261.130 328.385,260.600 328.020,259.623 327.576 C 256.619 326.213,254.542 324.206,253.113 321.284 L 251.800 318.600 251.692 245.638 C 251.630 203.830,251.737 171.549,251.944 170.038 C 252.319 167.295,252.239 166.547,251.709 167.843 M327.116 242.738 C 327.208 301.437,327.126 317.742,326.735 319.000 C 325.267 323.719,322.554 326.440,317.397 328.367 C 316.540 328.687,308.370 328.785,288.935 328.708 C 273.943 328.649,261.760 328.735,261.862 328.900 C 262.181 329.417,316.202 329.265,317.481 328.744 C 320.663 327.447,321.502 326.950,323.209 325.353 C 324.901 323.770,325.904 322.175,327.149 319.081 C 327.664 317.803,327.807 169.344,327.294 168.538 C 327.132 168.284,327.052 201.674,327.116 242.738 M221.187 245.000 C 220.966 323.015,221.097 318.163,219.117 321.800 C 218.391 323.134,215.645 325.852,213.800 327.063 C 211.026 328.884,212.880 328.840,144.938 328.717 C 109.484 328.652,80.684 328.732,80.938 328.894 C 81.823 329.457,209.639 329.246,211.200 328.679 C 214.539 327.466,218.657 323.983,219.750 321.448 C 220.046 320.761,220.538 319.660,220.844 319.000 C 221.374 317.857,221.874 214.327,221.505 182.000 C 221.444 176.610,221.301 204.960,221.187 245.000 " stroke="none" fill="#34442c" fill-rule="evenodd"></path></g></svg>